<mxfile host="app.diagrams.net" agent="Mozilla/5.0 (Windows NT 10.0; Win64; x64) AppleWebKit/537.36 (KHTML, like Gecko) Chrome/126.0.0.0 Safari/537.36" version="24.8.2">
  <diagram name="第 1 页" id="_HwajRiNFtwBDf4wMEr2">
    <mxGraphModel dx="3968" dy="1243" grid="1" gridSize="10" guides="1" tooltips="1" connect="1" arrows="1" fold="1" page="1" pageScale="1" pageWidth="827" pageHeight="1169" math="0" shadow="0">
      <root>
        <mxCell id="0" />
        <mxCell id="1" parent="0" />
        <mxCell id="-O52o67HVaWZJBNa8ZWJ-20" value="车辆列表&lt;br&gt;车辆详情" style="shape=umlFrame;whiteSpace=wrap;html=1;pointerEvents=0;sketch=0;strokeColor=default;align=center;verticalAlign=middle;fontFamily=Helvetica;fontSize=12;fontColor=default;fillColor=default;" vertex="1" parent="1">
          <mxGeometry x="-1159" y="111" width="1870" height="120" as="geometry" />
        </mxCell>
        <mxCell id="UPgxkfS9yM4EmyFrJnMO-32" value="主动请求车况" style="shape=umlFrame;whiteSpace=wrap;html=1;pointerEvents=0;sketch=0;strokeColor=default;align=center;verticalAlign=middle;fontFamily=Helvetica;fontSize=12;fontColor=default;fillColor=default;" parent="1" vertex="1">
          <mxGeometry x="-1159" y="872" width="1870" height="288" as="geometry" />
        </mxCell>
        <mxCell id="nmwjDRBDZmFMRTuQTV6h-132" value="车控过程V2.0" style="shape=umlFrame;whiteSpace=wrap;html=1;pointerEvents=0;sketch=0;strokeColor=default;align=center;verticalAlign=middle;fontFamily=Helvetica;fontSize=12;fontColor=default;fillColor=default;" parent="1" vertex="1">
          <mxGeometry x="-1159" y="260" width="1870" height="597" as="geometry" />
        </mxCell>
        <mxCell id="nmwjDRBDZmFMRTuQTV6h-51" value="车控SDK" style="shape=umlLifeline;perimeter=lifelinePerimeter;whiteSpace=wrap;html=1;container=0;dropTarget=0;collapsible=0;recursiveResize=0;outlineConnect=0;portConstraint=eastwest;newEdgeStyle={&quot;edgeStyle&quot;:&quot;elbowEdgeStyle&quot;,&quot;elbow&quot;:&quot;vertical&quot;,&quot;curved&quot;:0,&quot;rounded&quot;:0};fillColor=#ffe6cc;strokeColor=#d79b00;" parent="1" vertex="1">
          <mxGeometry x="-272" y="40" width="100" height="1130" as="geometry" />
        </mxCell>
        <mxCell id="nmwjDRBDZmFMRTuQTV6h-52" value="" style="html=1;points=[];perimeter=orthogonalPerimeter;outlineConnect=0;targetShapes=umlLifeline;portConstraint=eastwest;newEdgeStyle={&quot;edgeStyle&quot;:&quot;elbowEdgeStyle&quot;,&quot;elbow&quot;:&quot;vertical&quot;,&quot;curved&quot;:0,&quot;rounded&quot;:0};" parent="nmwjDRBDZmFMRTuQTV6h-51" vertex="1">
          <mxGeometry x="46" y="238" width="10" height="417" as="geometry" />
        </mxCell>
        <mxCell id="-O52o67HVaWZJBNa8ZWJ-15" value="" style="html=1;points=[];perimeter=orthogonalPerimeter;outlineConnect=0;targetShapes=umlLifeline;portConstraint=eastwest;newEdgeStyle={&quot;edgeStyle&quot;:&quot;elbowEdgeStyle&quot;,&quot;elbow&quot;:&quot;vertical&quot;,&quot;curved&quot;:0,&quot;rounded&quot;:0};" vertex="1" parent="nmwjDRBDZmFMRTuQTV6h-51">
          <mxGeometry x="45" y="865" width="10" height="170" as="geometry" />
        </mxCell>
        <mxCell id="nmwjDRBDZmFMRTuQTV6h-53" value="沈阳SDK" style="shape=umlLifeline;perimeter=lifelinePerimeter;whiteSpace=wrap;html=1;container=0;dropTarget=0;collapsible=0;recursiveResize=0;outlineConnect=0;portConstraint=eastwest;newEdgeStyle={&quot;edgeStyle&quot;:&quot;elbowEdgeStyle&quot;,&quot;elbow&quot;:&quot;vertical&quot;,&quot;curved&quot;:0,&quot;rounded&quot;:0};" parent="1" vertex="1">
          <mxGeometry x="-463" y="41" width="100" height="1129" as="geometry" />
        </mxCell>
        <mxCell id="nmwjDRBDZmFMRTuQTV6h-54" value="" style="html=1;points=[];perimeter=orthogonalPerimeter;outlineConnect=0;targetShapes=umlLifeline;portConstraint=eastwest;newEdgeStyle={&quot;edgeStyle&quot;:&quot;elbowEdgeStyle&quot;,&quot;elbow&quot;:&quot;vertical&quot;,&quot;curved&quot;:0,&quot;rounded&quot;:0};" parent="nmwjDRBDZmFMRTuQTV6h-53" vertex="1">
          <mxGeometry x="45" y="97" width="10" height="73" as="geometry" />
        </mxCell>
        <mxCell id="nmwjDRBDZmFMRTuQTV6h-57" value="DeviceOEM-Server" style="shape=umlLifeline;perimeter=lifelinePerimeter;whiteSpace=wrap;html=1;container=0;dropTarget=0;collapsible=0;recursiveResize=0;outlineConnect=0;portConstraint=eastwest;newEdgeStyle={&quot;edgeStyle&quot;:&quot;elbowEdgeStyle&quot;,&quot;elbow&quot;:&quot;vertical&quot;,&quot;curved&quot;:0,&quot;rounded&quot;:0};" parent="1" vertex="1">
          <mxGeometry x="-63" y="40" width="140" height="1130" as="geometry" />
        </mxCell>
        <mxCell id="nmwjDRBDZmFMRTuQTV6h-58" value="" style="html=1;points=[];perimeter=orthogonalPerimeter;outlineConnect=0;targetShapes=umlLifeline;portConstraint=eastwest;newEdgeStyle={&quot;edgeStyle&quot;:&quot;elbowEdgeStyle&quot;,&quot;elbow&quot;:&quot;vertical&quot;,&quot;curved&quot;:0,&quot;rounded&quot;:0};" parent="nmwjDRBDZmFMRTuQTV6h-57" vertex="1">
          <mxGeometry x="66" y="359" width="10" height="158" as="geometry" />
        </mxCell>
        <mxCell id="nmwjDRBDZmFMRTuQTV6h-78" value="" style="html=1;points=[];perimeter=orthogonalPerimeter;outlineConnect=0;targetShapes=umlLifeline;portConstraint=eastwest;newEdgeStyle={&quot;edgeStyle&quot;:&quot;elbowEdgeStyle&quot;,&quot;elbow&quot;:&quot;vertical&quot;,&quot;curved&quot;:0,&quot;rounded&quot;:0};" parent="nmwjDRBDZmFMRTuQTV6h-57" vertex="1">
          <mxGeometry x="66" y="582" width="10" height="60" as="geometry" />
        </mxCell>
        <mxCell id="nmwjDRBDZmFMRTuQTV6h-59" value="VehicleOEM-Server" style="shape=umlLifeline;perimeter=lifelinePerimeter;whiteSpace=wrap;html=1;container=0;dropTarget=0;collapsible=0;recursiveResize=0;outlineConnect=0;portConstraint=eastwest;newEdgeStyle={&quot;edgeStyle&quot;:&quot;elbowEdgeStyle&quot;,&quot;elbow&quot;:&quot;vertical&quot;,&quot;curved&quot;:0,&quot;rounded&quot;:0};" parent="1" vertex="1">
          <mxGeometry x="167" y="40" width="140" height="1130" as="geometry" />
        </mxCell>
        <mxCell id="nmwjDRBDZmFMRTuQTV6h-60" value="" style="html=1;points=[];perimeter=orthogonalPerimeter;outlineConnect=0;targetShapes=umlLifeline;portConstraint=eastwest;newEdgeStyle={&quot;edgeStyle&quot;:&quot;elbowEdgeStyle&quot;,&quot;elbow&quot;:&quot;vertical&quot;,&quot;curved&quot;:0,&quot;rounded&quot;:0};" parent="nmwjDRBDZmFMRTuQTV6h-59" vertex="1">
          <mxGeometry x="66" y="417" width="10" height="93" as="geometry" />
        </mxCell>
        <mxCell id="nmwjDRBDZmFMRTuQTV6h-82" value="" style="html=1;points=[];perimeter=orthogonalPerimeter;outlineConnect=0;targetShapes=umlLifeline;portConstraint=eastwest;newEdgeStyle={&quot;edgeStyle&quot;:&quot;elbowEdgeStyle&quot;,&quot;elbow&quot;:&quot;vertical&quot;,&quot;curved&quot;:0,&quot;rounded&quot;:0};" parent="nmwjDRBDZmFMRTuQTV6h-59" vertex="1">
          <mxGeometry x="66" y="557" width="10" height="85" as="geometry" />
        </mxCell>
        <mxCell id="nmwjDRBDZmFMRTuQTV6h-117" value="" style="html=1;points=[];perimeter=orthogonalPerimeter;outlineConnect=0;targetShapes=umlLifeline;portConstraint=eastwest;newEdgeStyle={&quot;edgeStyle&quot;:&quot;elbowEdgeStyle&quot;,&quot;elbow&quot;:&quot;vertical&quot;,&quot;curved&quot;:0,&quot;rounded&quot;:0};" parent="nmwjDRBDZmFMRTuQTV6h-59" vertex="1">
          <mxGeometry x="-163" y="719" width="10" height="60" as="geometry" />
        </mxCell>
        <mxCell id="nmwjDRBDZmFMRTuQTV6h-118" value="" style="html=1;points=[];perimeter=orthogonalPerimeter;outlineConnect=0;targetShapes=umlLifeline;portConstraint=eastwest;newEdgeStyle={&quot;edgeStyle&quot;:&quot;elbowEdgeStyle&quot;,&quot;elbow&quot;:&quot;vertical&quot;,&quot;curved&quot;:0,&quot;rounded&quot;:0};" parent="nmwjDRBDZmFMRTuQTV6h-59" vertex="1">
          <mxGeometry x="67" y="695" width="10" height="79" as="geometry" />
        </mxCell>
        <mxCell id="nmwjDRBDZmFMRTuQTV6h-121" value="15、MQTT：车况上报" style="html=1;verticalAlign=bottom;endArrow=block;edgeStyle=elbowEdgeStyle;elbow=vertical;curved=0;rounded=0;" parent="nmwjDRBDZmFMRTuQTV6h-59" edge="1">
          <mxGeometry relative="1" as="geometry">
            <mxPoint x="304" y="701" as="sourcePoint" />
            <Array as="points" />
            <mxPoint x="79" y="701" as="targetPoint" />
          </mxGeometry>
        </mxCell>
        <mxCell id="nmwjDRBDZmFMRTuQTV6h-122" value="MQTT：返回" style="html=1;verticalAlign=bottom;endArrow=open;dashed=1;endSize=8;edgeStyle=elbowEdgeStyle;elbow=vertical;curved=0;rounded=0;" parent="nmwjDRBDZmFMRTuQTV6h-59" edge="1">
          <mxGeometry x="0.0057" relative="1" as="geometry">
            <mxPoint x="305.5" y="721" as="targetPoint" />
            <Array as="points">
              <mxPoint x="166" y="721" />
            </Array>
            <mxPoint x="76" y="721" as="sourcePoint" />
            <mxPoint as="offset" />
          </mxGeometry>
        </mxCell>
        <mxCell id="nmwjDRBDZmFMRTuQTV6h-123" value="16、车况上报" style="html=1;verticalAlign=bottom;endArrow=block;edgeStyle=elbowEdgeStyle;elbow=vertical;curved=0;rounded=0;" parent="nmwjDRBDZmFMRTuQTV6h-59" edge="1">
          <mxGeometry relative="1" as="geometry">
            <mxPoint x="62" y="732" as="sourcePoint" />
            <Array as="points" />
            <mxPoint x="-148" y="732" as="targetPoint" />
          </mxGeometry>
        </mxCell>
        <mxCell id="nmwjDRBDZmFMRTuQTV6h-125" value="17、MQTT：车况上报" style="html=1;verticalAlign=bottom;endArrow=block;edgeStyle=elbowEdgeStyle;elbow=vertical;curved=0;rounded=0;" parent="nmwjDRBDZmFMRTuQTV6h-59" edge="1">
          <mxGeometry relative="1" as="geometry">
            <mxPoint x="-169" y="743" as="sourcePoint" />
            <Array as="points" />
            <mxPoint x="-381.5" y="743" as="targetPoint" />
          </mxGeometry>
        </mxCell>
        <mxCell id="nmwjDRBDZmFMRTuQTV6h-127" value="返回" style="html=1;verticalAlign=bottom;endArrow=open;dashed=1;endSize=8;edgeStyle=elbowEdgeStyle;elbow=vertical;curved=0;rounded=0;" parent="nmwjDRBDZmFMRTuQTV6h-59" edge="1">
          <mxGeometry x="0.0057" relative="1" as="geometry">
            <mxPoint x="67" y="762" as="targetPoint" />
            <Array as="points">
              <mxPoint x="-58" y="762" />
            </Array>
            <mxPoint x="-148" y="762" as="sourcePoint" />
            <mxPoint as="offset" />
          </mxGeometry>
        </mxCell>
        <mxCell id="UPgxkfS9yM4EmyFrJnMO-20" value="" style="html=1;points=[];perimeter=orthogonalPerimeter;outlineConnect=0;targetShapes=umlLifeline;portConstraint=eastwest;newEdgeStyle={&quot;edgeStyle&quot;:&quot;elbowEdgeStyle&quot;,&quot;elbow&quot;:&quot;vertical&quot;,&quot;curved&quot;:0,&quot;rounded&quot;:0};" parent="nmwjDRBDZmFMRTuQTV6h-59" vertex="1">
          <mxGeometry x="67" y="944" width="10" height="76" as="geometry" />
        </mxCell>
        <mxCell id="nmwjDRBDZmFMRTuQTV6h-62" value="Vehicle" style="shape=umlLifeline;perimeter=lifelinePerimeter;whiteSpace=wrap;html=1;container=0;dropTarget=0;collapsible=0;recursiveResize=0;outlineConnect=0;portConstraint=eastwest;newEdgeStyle={&quot;edgeStyle&quot;:&quot;elbowEdgeStyle&quot;,&quot;elbow&quot;:&quot;vertical&quot;,&quot;curved&quot;:0,&quot;rounded&quot;:0};" parent="1" vertex="1">
          <mxGeometry x="407" y="40" width="140" height="1130" as="geometry" />
        </mxCell>
        <mxCell id="nmwjDRBDZmFMRTuQTV6h-63" value="" style="html=1;points=[];perimeter=orthogonalPerimeter;outlineConnect=0;targetShapes=umlLifeline;portConstraint=eastwest;newEdgeStyle={&quot;edgeStyle&quot;:&quot;elbowEdgeStyle&quot;,&quot;elbow&quot;:&quot;vertical&quot;,&quot;curved&quot;:0,&quot;rounded&quot;:0};" parent="nmwjDRBDZmFMRTuQTV6h-62" vertex="1">
          <mxGeometry x="66" y="425" width="10" height="185" as="geometry" />
        </mxCell>
        <mxCell id="nmwjDRBDZmFMRTuQTV6h-64" value="收到命令" style="html=1;align=left;spacingLeft=2;endArrow=block;rounded=0;edgeStyle=orthogonalEdgeStyle;curved=0;rounded=0;fontFamily=Helvetica;fontSize=12;fontColor=default;" parent="nmwjDRBDZmFMRTuQTV6h-62" edge="1">
          <mxGeometry relative="1" as="geometry">
            <mxPoint x="76" y="452" as="sourcePoint" />
            <Array as="points">
              <mxPoint x="111" y="452" />
              <mxPoint x="111" y="482" />
            </Array>
            <mxPoint x="76" y="482" as="targetPoint" />
          </mxGeometry>
        </mxCell>
        <mxCell id="nmwjDRBDZmFMRTuQTV6h-115" value="" style="html=1;points=[];perimeter=orthogonalPerimeter;outlineConnect=0;targetShapes=umlLifeline;portConstraint=eastwest;newEdgeStyle={&quot;edgeStyle&quot;:&quot;elbowEdgeStyle&quot;,&quot;elbow&quot;:&quot;vertical&quot;,&quot;curved&quot;:0,&quot;rounded&quot;:0};" parent="nmwjDRBDZmFMRTuQTV6h-62" vertex="1">
          <mxGeometry x="66" y="649" width="10" height="91" as="geometry" />
        </mxCell>
        <mxCell id="UPgxkfS9yM4EmyFrJnMO-21" value="" style="html=1;points=[];perimeter=orthogonalPerimeter;outlineConnect=0;targetShapes=umlLifeline;portConstraint=eastwest;newEdgeStyle={&quot;edgeStyle&quot;:&quot;elbowEdgeStyle&quot;,&quot;elbow&quot;:&quot;vertical&quot;,&quot;curved&quot;:0,&quot;rounded&quot;:0};" parent="nmwjDRBDZmFMRTuQTV6h-62" vertex="1">
          <mxGeometry x="66" y="950" width="10" height="60" as="geometry" />
        </mxCell>
        <mxCell id="nmwjDRBDZmFMRTuQTV6h-67" value="&lt;font style=&quot;font-size: 11px;&quot;&gt;5、钥匙合法性&lt;/font&gt;&lt;span style=&quot;font-size: 11px;&quot;&gt;验证&lt;/span&gt;" style="html=1;align=left;spacingLeft=2;endArrow=block;rounded=0;edgeStyle=orthogonalEdgeStyle;curved=0;rounded=0;fontFamily=Helvetica;fontSize=12;fontColor=default;" parent="1" edge="1">
          <mxGeometry relative="1" as="geometry">
            <mxPoint x="13" y="418" as="sourcePoint" />
            <Array as="points">
              <mxPoint x="43" y="418" />
              <mxPoint x="43" y="448" />
            </Array>
            <mxPoint x="13" y="448" as="targetPoint" />
          </mxGeometry>
        </mxCell>
        <mxCell id="nmwjDRBDZmFMRTuQTV6h-69" value="2、车辆列表、车控详情页面" style="html=1;align=left;spacingLeft=2;endArrow=block;rounded=0;edgeStyle=orthogonalEdgeStyle;curved=0;rounded=0;fontFamily=Helvetica;fontSize=12;fontColor=default;" parent="1" edge="1">
          <mxGeometry relative="1" as="geometry">
            <mxPoint x="-405" y="153" as="sourcePoint" />
            <Array as="points">
              <mxPoint x="-375" y="153" />
              <mxPoint x="-375" y="183" />
            </Array>
            <mxPoint x="-405" y="183" as="targetPoint" />
            <mxPoint as="offset" />
          </mxGeometry>
        </mxCell>
        <mxCell id="nmwjDRBDZmFMRTuQTV6h-70" value="" style="endArrow=classic;html=1;rounded=0;" parent="1" edge="1">
          <mxGeometry width="50" height="50" relative="1" as="geometry">
            <mxPoint x="18" y="467" as="sourcePoint" />
            <mxPoint x="233" y="467" as="targetPoint" />
          </mxGeometry>
        </mxCell>
        <mxCell id="nmwjDRBDZmFMRTuQTV6h-71" value="6、车控命令" style="edgeLabel;html=1;align=center;verticalAlign=middle;resizable=0;points=[];" parent="nmwjDRBDZmFMRTuQTV6h-70" vertex="1" connectable="0">
          <mxGeometry x="-0.1703" y="2" relative="1" as="geometry">
            <mxPoint as="offset" />
          </mxGeometry>
        </mxCell>
        <mxCell id="nmwjDRBDZmFMRTuQTV6h-72" value="9、返回" style="html=1;verticalAlign=bottom;endArrow=open;dashed=1;endSize=8;edgeStyle=elbowEdgeStyle;elbow=vertical;curved=0;rounded=0;" parent="1" edge="1">
          <mxGeometry relative="1" as="geometry">
            <mxPoint x="13" y="539" as="targetPoint" />
            <Array as="points" />
            <mxPoint x="228" y="539" as="sourcePoint" />
          </mxGeometry>
        </mxCell>
        <mxCell id="nmwjDRBDZmFMRTuQTV6h-73" value="10、返回（最长10秒后回复）" style="html=1;verticalAlign=bottom;endArrow=open;dashed=1;endSize=8;edgeStyle=elbowEdgeStyle;elbow=vertical;curved=0;rounded=0;" parent="1" edge="1">
          <mxGeometry relative="1" as="geometry">
            <mxPoint x="-216" y="550" as="targetPoint" />
            <Array as="points" />
            <mxPoint x="4" y="550" as="sourcePoint" />
            <mxPoint as="offset" />
          </mxGeometry>
        </mxCell>
        <mxCell id="nmwjDRBDZmFMRTuQTV6h-93" value="车控执行结果" style="html=1;align=left;spacingLeft=2;endArrow=block;rounded=0;edgeStyle=orthogonalEdgeStyle;curved=0;rounded=0;fontFamily=Helvetica;fontSize=12;fontColor=default;" parent="1" edge="1">
          <mxGeometry relative="1" as="geometry">
            <mxPoint x="483" y="560" as="sourcePoint" />
            <Array as="points">
              <mxPoint x="518" y="560" />
              <mxPoint x="518" y="590" />
            </Array>
            <mxPoint x="483" y="590" as="targetPoint" />
          </mxGeometry>
        </mxCell>
        <mxCell id="nmwjDRBDZmFMRTuQTV6h-96" value="" style="endArrow=classic;html=1;rounded=0;" parent="1" edge="1">
          <mxGeometry width="50" height="50" relative="1" as="geometry">
            <mxPoint x="243" y="480" as="sourcePoint" />
            <mxPoint x="473" y="480" as="targetPoint" />
          </mxGeometry>
        </mxCell>
        <mxCell id="nmwjDRBDZmFMRTuQTV6h-97" value="7、MQTT：车控命令（10秒超时）" style="edgeLabel;html=1;align=center;verticalAlign=middle;resizable=0;points=[];" parent="nmwjDRBDZmFMRTuQTV6h-96" vertex="1" connectable="0">
          <mxGeometry x="-0.1703" y="2" relative="1" as="geometry">
            <mxPoint x="10" as="offset" />
          </mxGeometry>
        </mxCell>
        <mxCell id="nmwjDRBDZmFMRTuQTV6h-98" value="8、MQTT：命令已经收到" style="html=1;verticalAlign=bottom;endArrow=open;dashed=1;endSize=8;edgeStyle=elbowEdgeStyle;elbow=vertical;curved=0;rounded=0;" parent="1" edge="1">
          <mxGeometry relative="1" as="geometry">
            <mxPoint x="243" y="530" as="targetPoint" />
            <Array as="points" />
            <mxPoint x="473" y="530" as="sourcePoint" />
          </mxGeometry>
        </mxCell>
        <mxCell id="nmwjDRBDZmFMRTuQTV6h-65" value="" style="endArrow=classic;html=1;rounded=0;" parent="1" edge="1">
          <mxGeometry width="50" height="50" relative="1" as="geometry">
            <mxPoint x="-209" y="412" as="sourcePoint" />
            <mxPoint x="1" y="412" as="targetPoint" />
          </mxGeometry>
        </mxCell>
        <mxCell id="nmwjDRBDZmFMRTuQTV6h-66" value="4、HTTPS：车控命令请求" style="edgeLabel;html=1;align=center;verticalAlign=middle;resizable=0;points=[];" parent="nmwjDRBDZmFMRTuQTV6h-65" vertex="1" connectable="0">
          <mxGeometry x="-0.1703" y="2" relative="1" as="geometry">
            <mxPoint x="10" y="1" as="offset" />
          </mxGeometry>
        </mxCell>
        <mxCell id="nmwjDRBDZmFMRTuQTV6h-105" value="11、MQTT：车控执行结果" style="html=1;verticalAlign=bottom;endArrow=block;edgeStyle=elbowEdgeStyle;elbow=vertical;curved=0;rounded=0;" parent="1" edge="1">
          <mxGeometry x="0.0044" relative="1" as="geometry">
            <mxPoint x="470" y="605" as="sourcePoint" />
            <Array as="points" />
            <mxPoint x="245" y="605" as="targetPoint" />
            <mxPoint as="offset" />
          </mxGeometry>
        </mxCell>
        <mxCell id="nmwjDRBDZmFMRTuQTV6h-106" value="MQTT：返回" style="html=1;verticalAlign=bottom;endArrow=open;dashed=1;endSize=8;edgeStyle=elbowEdgeStyle;elbow=vertical;curved=0;rounded=0;" parent="1" edge="1">
          <mxGeometry x="0.0057" relative="1" as="geometry">
            <mxPoint x="471.5" y="627" as="targetPoint" />
            <Array as="points">
              <mxPoint x="332" y="627" />
            </Array>
            <mxPoint x="242" y="627" as="sourcePoint" />
            <mxPoint as="offset" />
          </mxGeometry>
        </mxCell>
        <mxCell id="nmwjDRBDZmFMRTuQTV6h-107" value="12、车控执行结果" style="html=1;verticalAlign=bottom;endArrow=block;edgeStyle=elbowEdgeStyle;elbow=vertical;curved=0;rounded=0;" parent="1" edge="1">
          <mxGeometry relative="1" as="geometry">
            <mxPoint x="228" y="638" as="sourcePoint" />
            <Array as="points" />
            <mxPoint x="11" y="638" as="targetPoint" />
          </mxGeometry>
        </mxCell>
        <mxCell id="nmwjDRBDZmFMRTuQTV6h-109" value="13、MQTT：车控执行结果" style="html=1;verticalAlign=bottom;endArrow=block;edgeStyle=elbowEdgeStyle;elbow=vertical;curved=0;rounded=0;" parent="1" edge="1">
          <mxGeometry relative="1" as="geometry">
            <mxPoint x="3" y="649" as="sourcePoint" />
            <Array as="points" />
            <mxPoint x="-216" y="649" as="targetPoint" />
          </mxGeometry>
        </mxCell>
        <mxCell id="nmwjDRBDZmFMRTuQTV6h-112" value="返回" style="html=1;verticalAlign=bottom;endArrow=open;dashed=1;endSize=8;edgeStyle=elbowEdgeStyle;elbow=vertical;curved=0;rounded=0;" parent="1" edge="1">
          <mxGeometry x="0.0057" relative="1" as="geometry">
            <mxPoint x="233" y="663" as="targetPoint" />
            <Array as="points">
              <mxPoint x="108" y="663" />
            </Array>
            <mxPoint x="18" y="663" as="sourcePoint" />
            <mxPoint as="offset" />
          </mxGeometry>
        </mxCell>
        <mxCell id="nmwjDRBDZmFMRTuQTV6h-116" value="产生车况数据" style="html=1;align=left;spacingLeft=2;endArrow=block;rounded=0;edgeStyle=orthogonalEdgeStyle;curved=0;rounded=0;fontFamily=Helvetica;fontSize=12;fontColor=default;" parent="1" edge="1">
          <mxGeometry relative="1" as="geometry">
            <mxPoint x="485" y="700" as="sourcePoint" />
            <Array as="points">
              <mxPoint x="520" y="700" />
              <mxPoint x="520" y="730" />
            </Array>
            <mxPoint x="485" y="730" as="targetPoint" />
          </mxGeometry>
        </mxCell>
        <mxCell id="UPgxkfS9yM4EmyFrJnMO-1" value="SESDK" style="shape=umlLifeline;perimeter=lifelinePerimeter;whiteSpace=wrap;html=1;container=0;dropTarget=0;collapsible=0;recursiveResize=0;outlineConnect=0;portConstraint=eastwest;newEdgeStyle={&quot;edgeStyle&quot;:&quot;elbowEdgeStyle&quot;,&quot;elbow&quot;:&quot;vertical&quot;,&quot;curved&quot;:0,&quot;rounded&quot;:0};" parent="1" vertex="1">
          <mxGeometry x="-659" y="41" width="100" height="1129" as="geometry" />
        </mxCell>
        <mxCell id="UPgxkfS9yM4EmyFrJnMO-2" value="" style="html=1;points=[];perimeter=orthogonalPerimeter;outlineConnect=0;targetShapes=umlLifeline;portConstraint=eastwest;newEdgeStyle={&quot;edgeStyle&quot;:&quot;elbowEdgeStyle&quot;,&quot;elbow&quot;:&quot;vertical&quot;,&quot;curved&quot;:0,&quot;rounded&quot;:0};" parent="UPgxkfS9yM4EmyFrJnMO-1" vertex="1">
          <mxGeometry x="46" y="283" width="10" height="90" as="geometry" />
        </mxCell>
        <mxCell id="UPgxkfS9yM4EmyFrJnMO-5" value="3.2、返回签名数据" style="html=1;verticalAlign=bottom;endArrow=open;dashed=1;endSize=8;edgeStyle=elbowEdgeStyle;elbow=vertical;curved=0;rounded=0;" parent="1" edge="1">
          <mxGeometry x="0.0057" relative="1" as="geometry">
            <mxPoint x="-230.5" y="401" as="targetPoint" />
            <Array as="points">
              <mxPoint x="-517" y="401" />
            </Array>
            <mxPoint x="-591" y="401" as="sourcePoint" />
            <mxPoint as="offset" />
          </mxGeometry>
        </mxCell>
        <mxCell id="UPgxkfS9yM4EmyFrJnMO-8" value="2、车控指令签名请求" style="html=1;verticalAlign=bottom;endArrow=block;edgeStyle=elbowEdgeStyle;elbow=vertical;curved=0;rounded=0;" parent="1" edge="1">
          <mxGeometry relative="1" as="geometry">
            <mxPoint x="-229" y="333" as="sourcePoint" />
            <Array as="points" />
            <mxPoint x="-599" y="333" as="targetPoint" />
          </mxGeometry>
        </mxCell>
        <mxCell id="UPgxkfS9yM4EmyFrJnMO-10" value="" style="html=1;points=[];perimeter=orthogonalPerimeter;outlineConnect=0;targetShapes=umlLifeline;portConstraint=eastwest;newEdgeStyle={&quot;edgeStyle&quot;:&quot;elbowEdgeStyle&quot;,&quot;elbow&quot;:&quot;vertical&quot;,&quot;curved&quot;:0,&quot;rounded&quot;:0};" parent="1" vertex="1">
          <mxGeometry x="-226" y="776" width="10" height="40" as="geometry" />
        </mxCell>
        <mxCell id="UPgxkfS9yM4EmyFrJnMO-12" value="18、车况上报" style="html=1;verticalAlign=bottom;endArrow=block;edgeStyle=elbowEdgeStyle;elbow=vertical;curved=0;rounded=0;" parent="1" edge="1">
          <mxGeometry x="-0.0028" relative="1" as="geometry">
            <mxPoint x="-228" y="796" as="sourcePoint" />
            <Array as="points" />
            <mxPoint x="-820" y="796" as="targetPoint" />
            <mxPoint as="offset" />
          </mxGeometry>
        </mxCell>
        <mxCell id="UPgxkfS9yM4EmyFrJnMO-14" value="" style="endArrow=classic;html=1;rounded=0;" parent="1" edge="1">
          <mxGeometry width="50" height="50" relative="1" as="geometry">
            <mxPoint x="-820" y="915" as="sourcePoint" />
            <mxPoint x="-231" y="913" as="targetPoint" />
          </mxGeometry>
        </mxCell>
        <mxCell id="UPgxkfS9yM4EmyFrJnMO-15" value="&lt;div style=&quot;text-align: left;&quot;&gt;21、请求最新车况&lt;/div&gt;" style="edgeLabel;html=1;align=center;verticalAlign=middle;resizable=0;points=[];" parent="UPgxkfS9yM4EmyFrJnMO-14" vertex="1" connectable="0">
          <mxGeometry x="-0.1703" y="2" relative="1" as="geometry">
            <mxPoint x="10" y="1" as="offset" />
          </mxGeometry>
        </mxCell>
        <mxCell id="UPgxkfS9yM4EmyFrJnMO-16" value="" style="html=1;points=[];perimeter=orthogonalPerimeter;outlineConnect=0;targetShapes=umlLifeline;portConstraint=eastwest;newEdgeStyle={&quot;edgeStyle&quot;:&quot;elbowEdgeStyle&quot;,&quot;elbow&quot;:&quot;vertical&quot;,&quot;curved&quot;:0,&quot;rounded&quot;:0};" parent="1" vertex="1">
          <mxGeometry x="3" y="981" width="10" height="88" as="geometry" />
        </mxCell>
        <mxCell id="UPgxkfS9yM4EmyFrJnMO-17" value="返回车况" style="html=1;verticalAlign=bottom;endArrow=open;dashed=1;endSize=8;edgeStyle=elbowEdgeStyle;elbow=horizontal;curved=0;rounded=0;" parent="1" edge="1">
          <mxGeometry relative="1" as="geometry">
            <mxPoint x="-213" y="1057" as="targetPoint" />
            <Array as="points" />
            <mxPoint x="-8" y="1057" as="sourcePoint" />
          </mxGeometry>
        </mxCell>
        <mxCell id="UPgxkfS9yM4EmyFrJnMO-18" value="" style="endArrow=classic;html=1;rounded=0;" parent="1" edge="1">
          <mxGeometry width="50" height="50" relative="1" as="geometry">
            <mxPoint x="-216" y="993" as="sourcePoint" />
            <mxPoint x="-1" y="993" as="targetPoint" />
          </mxGeometry>
        </mxCell>
        <mxCell id="UPgxkfS9yM4EmyFrJnMO-19" value="23.2、请求车况" style="edgeLabel;html=1;align=center;verticalAlign=middle;resizable=0;points=[];" parent="UPgxkfS9yM4EmyFrJnMO-18" vertex="1" connectable="0">
          <mxGeometry x="-0.1703" y="2" relative="1" as="geometry">
            <mxPoint as="offset" />
          </mxGeometry>
        </mxCell>
        <mxCell id="UPgxkfS9yM4EmyFrJnMO-22" value="" style="endArrow=classic;html=1;rounded=0;" parent="1" edge="1">
          <mxGeometry width="50" height="50" relative="1" as="geometry">
            <mxPoint x="253" y="997" as="sourcePoint" />
            <mxPoint x="471" y="1000" as="targetPoint" />
          </mxGeometry>
        </mxCell>
        <mxCell id="UPgxkfS9yM4EmyFrJnMO-23" value="MQTT：请求车况（10秒超时）" style="edgeLabel;html=1;align=center;verticalAlign=middle;resizable=0;points=[];" parent="UPgxkfS9yM4EmyFrJnMO-22" vertex="1" connectable="0">
          <mxGeometry x="-0.1703" y="2" relative="1" as="geometry">
            <mxPoint x="10" as="offset" />
          </mxGeometry>
        </mxCell>
        <mxCell id="UPgxkfS9yM4EmyFrJnMO-24" value="MQTT：车况数据" style="html=1;verticalAlign=bottom;endArrow=open;dashed=1;endSize=8;edgeStyle=elbowEdgeStyle;elbow=vertical;curved=0;rounded=0;" parent="1" edge="1">
          <mxGeometry relative="1" as="geometry">
            <mxPoint x="253" y="1043" as="targetPoint" />
            <Array as="points" />
            <mxPoint x="461" y="1043" as="sourcePoint" />
          </mxGeometry>
        </mxCell>
        <mxCell id="UPgxkfS9yM4EmyFrJnMO-25" value="返回车况" style="html=1;verticalAlign=bottom;endArrow=open;dashed=1;endSize=8;edgeStyle=elbowEdgeStyle;elbow=vertical;curved=0;rounded=0;" parent="1" edge="1">
          <mxGeometry relative="1" as="geometry">
            <mxPoint x="18" y="1049" as="targetPoint" />
            <Array as="points" />
            <mxPoint x="223" y="1049" as="sourcePoint" />
          </mxGeometry>
        </mxCell>
        <mxCell id="UPgxkfS9yM4EmyFrJnMO-26" value="" style="endArrow=classic;html=1;rounded=0;" parent="1" edge="1">
          <mxGeometry width="50" height="50" relative="1" as="geometry">
            <mxPoint x="15" y="1000" as="sourcePoint" />
            <mxPoint x="230" y="1000" as="targetPoint" />
          </mxGeometry>
        </mxCell>
        <mxCell id="UPgxkfS9yM4EmyFrJnMO-27" value="24、请求车况" style="edgeLabel;html=1;align=center;verticalAlign=middle;resizable=0;points=[];" parent="UPgxkfS9yM4EmyFrJnMO-26" vertex="1" connectable="0">
          <mxGeometry x="-0.1703" y="2" relative="1" as="geometry">
            <mxPoint as="offset" />
          </mxGeometry>
        </mxCell>
        <mxCell id="UPgxkfS9yM4EmyFrJnMO-28" value="25、车况数据返回" style="html=1;align=left;spacingLeft=2;endArrow=block;rounded=0;edgeStyle=orthogonalEdgeStyle;curved=0;rounded=0;fontFamily=Helvetica;fontSize=12;fontColor=default;" parent="1" edge="1">
          <mxGeometry x="-0.06" y="9" relative="1" as="geometry">
            <mxPoint x="486" y="1003" as="sourcePoint" />
            <Array as="points">
              <mxPoint x="521" y="1003" />
              <mxPoint x="521" y="1033" />
            </Array>
            <mxPoint x="486" y="1033" as="targetPoint" />
            <mxPoint as="offset" />
          </mxGeometry>
        </mxCell>
        <mxCell id="UPgxkfS9yM4EmyFrJnMO-30" value="22、使用手机端本地缓存车况" style="html=1;align=left;spacingLeft=2;endArrow=block;rounded=0;edgeStyle=orthogonalEdgeStyle;curved=0;rounded=0;fontFamily=Helvetica;fontSize=12;fontColor=default;" parent="1" edge="1">
          <mxGeometry relative="1" as="geometry">
            <mxPoint x="-216" y="916" as="sourcePoint" />
            <Array as="points">
              <mxPoint x="-181" y="916" />
              <mxPoint x="-181" y="946" />
            </Array>
            <mxPoint x="-216" y="946" as="targetPoint" />
          </mxGeometry>
        </mxCell>
        <mxCell id="-O52o67HVaWZJBNa8ZWJ-1" value="One APP" style="shape=umlLifeline;perimeter=lifelinePerimeter;whiteSpace=wrap;html=1;container=0;dropTarget=0;collapsible=0;recursiveResize=0;outlineConnect=0;portConstraint=eastwest;newEdgeStyle={&quot;edgeStyle&quot;:&quot;elbowEdgeStyle&quot;,&quot;elbow&quot;:&quot;vertical&quot;,&quot;curved&quot;:0,&quot;rounded&quot;:0};" vertex="1" parent="1">
          <mxGeometry x="-880" y="40" width="100" height="1130" as="geometry" />
        </mxCell>
        <mxCell id="-O52o67HVaWZJBNa8ZWJ-2" value="" style="html=1;points=[];perimeter=orthogonalPerimeter;outlineConnect=0;targetShapes=umlLifeline;portConstraint=eastwest;newEdgeStyle={&quot;edgeStyle&quot;:&quot;elbowEdgeStyle&quot;,&quot;elbow&quot;:&quot;vertical&quot;,&quot;curved&quot;:0,&quot;rounded&quot;:0};" vertex="1" parent="-O52o67HVaWZJBNa8ZWJ-1">
          <mxGeometry x="45" y="67" width="10" height="593" as="geometry" />
        </mxCell>
        <mxCell id="-O52o67HVaWZJBNa8ZWJ-3" value="" style="html=1;points=[];perimeter=orthogonalPerimeter;outlineConnect=0;targetShapes=umlLifeline;portConstraint=eastwest;newEdgeStyle={&quot;edgeStyle&quot;:&quot;elbowEdgeStyle&quot;,&quot;elbow&quot;:&quot;vertical&quot;,&quot;curved&quot;:0,&quot;rounded&quot;:0};" vertex="1" parent="-O52o67HVaWZJBNa8ZWJ-1">
          <mxGeometry x="45" y="745" width="10" height="26" as="geometry" />
        </mxCell>
        <mxCell id="-O52o67HVaWZJBNa8ZWJ-4" value="" style="html=1;points=[];perimeter=orthogonalPerimeter;outlineConnect=0;targetShapes=umlLifeline;portConstraint=eastwest;newEdgeStyle={&quot;edgeStyle&quot;:&quot;elbowEdgeStyle&quot;,&quot;elbow&quot;:&quot;vertical&quot;,&quot;curved&quot;:0,&quot;rounded&quot;:0};" vertex="1" parent="-O52o67HVaWZJBNa8ZWJ-1">
          <mxGeometry x="45" y="849" width="10" height="256" as="geometry" />
        </mxCell>
        <mxCell id="-O52o67HVaWZJBNa8ZWJ-7" value="" style="endArrow=classic;html=1;rounded=0;fontSize=12;startSize=8;endSize=8;curved=1;" edge="1" parent="1">
          <mxGeometry width="50" height="50" relative="1" as="geometry">
            <mxPoint x="-826" y="144" as="sourcePoint" />
            <mxPoint x="-419" y="144" as="targetPoint" />
          </mxGeometry>
        </mxCell>
        <mxCell id="-O52o67HVaWZJBNa8ZWJ-8" value="1、请求车辆列表、车控详情页面" style="edgeLabel;html=1;align=center;verticalAlign=middle;resizable=0;points=[];fontSize=12;" vertex="1" connectable="0" parent="-O52o67HVaWZJBNa8ZWJ-7">
          <mxGeometry x="-0.0246" y="1" relative="1" as="geometry">
            <mxPoint as="offset" />
          </mxGeometry>
        </mxCell>
        <mxCell id="-O52o67HVaWZJBNa8ZWJ-9" value="3、数据签名" style="html=1;align=left;spacingLeft=2;endArrow=block;rounded=0;edgeStyle=orthogonalEdgeStyle;curved=0;rounded=0;fontFamily=Helvetica;fontSize=12;fontColor=default;" edge="1" parent="1">
          <mxGeometry relative="1" as="geometry">
            <mxPoint x="-598" y="351" as="sourcePoint" />
            <Array as="points">
              <mxPoint x="-568" y="351" />
              <mxPoint x="-568" y="381" />
            </Array>
            <mxPoint x="-598" y="381" as="targetPoint" />
            <mxPoint as="offset" />
          </mxGeometry>
        </mxCell>
        <mxCell id="-O52o67HVaWZJBNa8ZWJ-10" value="返回车辆列表、车控详情页面信息" style="html=1;verticalAlign=bottom;endArrow=open;dashed=1;endSize=8;edgeStyle=elbowEdgeStyle;elbow=vertical;curved=0;rounded=0;" edge="1" parent="1">
          <mxGeometry relative="1" as="geometry">
            <mxPoint x="-822" y="205" as="targetPoint" />
            <Array as="points" />
            <mxPoint x="-422" y="205" as="sourcePoint" />
            <mxPoint as="offset" />
          </mxGeometry>
        </mxCell>
        <mxCell id="-O52o67HVaWZJBNa8ZWJ-11" value="" style="endArrow=classic;html=1;rounded=0;fontSize=12;startSize=8;endSize=8;curved=1;" edge="1" parent="1">
          <mxGeometry width="50" height="50" relative="1" as="geometry">
            <mxPoint x="-827" y="285" as="sourcePoint" />
            <mxPoint x="-230" y="285" as="targetPoint" />
          </mxGeometry>
        </mxCell>
        <mxCell id="-O52o67HVaWZJBNa8ZWJ-12" value="1、发起车控" style="edgeLabel;html=1;align=center;verticalAlign=middle;resizable=0;points=[];fontSize=12;" vertex="1" connectable="0" parent="-O52o67HVaWZJBNa8ZWJ-11">
          <mxGeometry x="-0.0246" y="1" relative="1" as="geometry">
            <mxPoint as="offset" />
          </mxGeometry>
        </mxCell>
        <mxCell id="-O52o67HVaWZJBNa8ZWJ-13" value="14、车控执行结果" style="html=1;verticalAlign=bottom;endArrow=open;dashed=1;endSize=8;edgeStyle=elbowEdgeStyle;elbow=vertical;curved=0;rounded=0;" edge="1" parent="1">
          <mxGeometry relative="1" as="geometry">
            <mxPoint x="-820" y="685" as="targetPoint" />
            <Array as="points" />
            <mxPoint x="-230" y="685" as="sourcePoint" />
            <mxPoint as="offset" />
          </mxGeometry>
        </mxCell>
        <mxCell id="-O52o67HVaWZJBNa8ZWJ-14" value="23.1、返回车况" style="html=1;verticalAlign=bottom;endArrow=open;dashed=1;endSize=8;edgeStyle=elbowEdgeStyle;elbow=vertical;curved=0;rounded=0;" edge="1" parent="1">
          <mxGeometry relative="1" as="geometry">
            <mxPoint x="-823" y="952" as="targetPoint" />
            <Array as="points" />
            <mxPoint x="-233" y="952" as="sourcePoint" />
            <mxPoint as="offset" />
          </mxGeometry>
        </mxCell>
        <mxCell id="-O52o67HVaWZJBNa8ZWJ-16" value="18、车况上报" style="html=1;verticalAlign=bottom;endArrow=block;edgeStyle=elbowEdgeStyle;elbow=vertical;curved=0;rounded=0;" edge="1" parent="1">
          <mxGeometry x="-0.0028" relative="1" as="geometry">
            <mxPoint x="-226" y="1069" as="sourcePoint" />
            <Array as="points" />
            <mxPoint x="-818" y="1069" as="targetPoint" />
            <mxPoint as="offset" />
          </mxGeometry>
        </mxCell>
        <mxCell id="-O52o67HVaWZJBNa8ZWJ-17" value="23.3、使用手机端本地缓存车况" style="html=1;align=left;spacingLeft=2;endArrow=block;rounded=0;edgeStyle=orthogonalEdgeStyle;curved=0;rounded=0;fontFamily=Helvetica;fontSize=12;fontColor=default;" edge="1" parent="1">
          <mxGeometry relative="1" as="geometry">
            <mxPoint x="-820" y="989" as="sourcePoint" />
            <Array as="points">
              <mxPoint x="-785" y="989" />
              <mxPoint x="-785" y="1019" />
            </Array>
            <mxPoint x="-820" y="1019" as="targetPoint" />
          </mxGeometry>
        </mxCell>
        <mxCell id="-O52o67HVaWZJBNa8ZWJ-18" value="26、更新车况" style="html=1;align=left;spacingLeft=2;endArrow=block;rounded=0;edgeStyle=orthogonalEdgeStyle;curved=0;rounded=0;fontFamily=Helvetica;fontSize=12;fontColor=default;" edge="1" parent="1">
          <mxGeometry relative="1" as="geometry">
            <mxPoint x="-823" y="1092" as="sourcePoint" />
            <Array as="points">
              <mxPoint x="-788" y="1092" />
              <mxPoint x="-788" y="1122" />
            </Array>
            <mxPoint x="-823" y="1122" as="targetPoint" />
          </mxGeometry>
        </mxCell>
        <mxCell id="-O52o67HVaWZJBNa8ZWJ-21" value="指令发送成功" style="html=1;verticalAlign=bottom;endArrow=open;dashed=1;endSize=8;edgeStyle=elbowEdgeStyle;elbow=vertical;curved=0;rounded=0;" edge="1" parent="1">
          <mxGeometry relative="1" as="geometry">
            <mxPoint x="-816" y="585" as="targetPoint" />
            <Array as="points" />
            <mxPoint x="-226" y="585" as="sourcePoint" />
            <mxPoint as="offset" />
          </mxGeometry>
        </mxCell>
      </root>
    </mxGraphModel>
  </diagram>
</mxfile>
